# xmcd
#
# Track frame offsets: 
#        182
#        10740
#        24380
#        37205
#        50615
#        68487
#        80720
#        91347
#        105377
#        118577
#        138332
#        155510
#        170700
#        182962
#        197155
#        208860
#        221445
#        231465
#        241390
#        260392
#        277285
#
# Disc length: 3874 seconds
#
# Revision: 4
# Processed by: cddbd v1.5.2PL0 Copyright (c) Steve Scherf et al.
# Submitted via: ExactAudioCopy v1.3
#
DISCID=380f2015
DTITLE=Various Artist - South Of The Border - The Sound Of Tex-Mex
DYEAR=1996
DGENRE=Tex-Mex
TTITLE0=Flaco Jimenez - Viva Seguin
TTITLE1=Valerio Longoria - Los Illegales
TTITLE2=Janie C Ramirez and The Cactus Country Band - Cactus Cumbia
TTITLE3=Santiago Jimenez Jnr - La Torrmenta
TTITLE4=Steve Jordan - Ran-kan-kan
TTITLE5=Eva Ybarra Y Su Conjunto - Triste Adios
TTITLE6=Flaco Jimenez - El Rosal
TTITLE7=Roberto Pulido Y Los Clasicos - Mi Pequenito
TTITLE8=Valerio Longoria - El Caballo Viejo
TTITLE9=Conjunto Internacional - Joe's Special
TTITLE10=Steve Jordan - Kranke
TTITLE11=Angel Flores - Buscando Un Olvido
TTITLE12=Flaco Jimenez - Amaneci Bebiendo
TTITLE13=Eva Ybarra Y Su Conjunto - A Bailar Con Eva
TTITLE14=Tony De La Rosa - Asi Se Baila En Tejas
TTITLE15=Santiago Jimenez Jnr - Mi Desventura
TTITLE16=Ruben Naranjo Y Los Gamblers - Los Vaqueros
TTITLE17=Los Dos Gilbertos - Ru-Gil
TTITLE18=Steve Jordan - La Cumbia Del Facundo
TTITLE19=Mingo Saldivar Y Sus Temendos Cuatro Espadas - Mujer Perversa
TTITLE20=Flaco Jimenez - La Esperanza
EXTD=To what category of those there are to chose from does tex-mex be
EXTD=long ?                                                           
EXTD=                                                       
EXTD=     hat categori does tex-mex belong ?
EXTT0=
EXTT1=
EXTT2=
EXTT3=
EXTT4=
EXTT5=
EXTT6=
EXTT7=
EXTT8=
EXTT9=
EXTT10=
EXTT11=
EXTT12=
EXTT13=
EXTT14=
EXTT15=
EXTT16=
EXTT17=
EXTT18=
EXTT19=
EXTT20=
PLAYORDER=
